<svg width="40" height="40" viewBox="0 0 40 40" fill="none" xmlns="http://www.w3.org/2000/svg">
<path d="M14.473 39.9999C8.51983 39.9656 3.59546 27.8131 3.59546 21.6241C3.59546 11.5144 11.1794 9.30111 14.1023 9.30111C15.4194 9.30111 16.8259 9.81838 18.0665 10.2761C18.934 10.5954 19.8312 10.925 20.3301 10.925C20.6288 10.925 21.3326 10.6446 21.9541 10.3986C23.2793 9.87104 24.9283 9.21533 26.8487 9.21533C26.8521 9.21533 26.8567 9.21533 26.8601 9.21533C28.294 9.21533 32.6416 9.53002 35.2555 13.4553L35.8677 14.3754L34.9866 15.0403C33.7277 15.9902 31.4308 17.7228 31.4308 21.1549C31.4308 25.2199 34.0321 26.7831 35.2818 27.535C35.8334 27.8669 36.4044 28.2091 36.4044 28.9575C36.4044 29.4462 32.5043 39.9392 26.8406 39.9392C25.4548 39.9392 24.4751 39.5227 23.6111 39.1553C22.7368 38.7834 21.9826 38.463 20.7363 38.463C20.1046 38.463 19.3058 38.7617 18.4601 39.0787C17.3044 39.51 15.9962 39.9999 14.5119 39.9999H14.473Z" fill="black"/>
<path d="M27.4487 0C27.5962 5.31844 23.7927 9.00812 19.9936 8.77672C19.3676 4.53242 23.7922 0 27.4487 0Z" fill="black"/>
</svg>
