<svg width="40" height="40" viewBox="0 0 40 40" fill="none" xmlns="http://www.w3.org/2000/svg">
<g id="beenhere">
<mask id="mask0_665_4571" style="mask-type:alpha" maskUnits="userSpaceOnUse" x="0" y="0" width="40" height="40">
<rect id="Bounding box" width="40" height="40" fill="#D9D9D9"/>
</mask>
<g mask="url(#mask0_665_4571)">
<path id="beenhere_2" d="M20 36.2821L9.31625 28.2585C9.00217 28.0441 8.75983 27.7628 8.58925 27.4145C8.41867 27.0662 8.33337 26.6994 8.33337 26.3141V7.43587C8.33337 6.74999 8.56787 6.17253 9.03687 5.7035C9.5059 5.2345 10.0834 5 10.7692 5H29.2308C29.9167 5 30.4942 5.2345 30.9632 5.7035C31.4322 6.17253 31.6667 6.74999 31.6667 7.43587V26.3141C31.6667 26.6994 31.5814 27.0662 31.4108 27.4145C31.2402 27.7628 30.9979 28.0442 30.6838 28.2585L20 36.2821ZM18.25 23.8462L26.5129 15.5833L25.5022 14.594L18.2436 21.8526L14.4765 18.0855L13.4872 19.0898L18.25 23.8462Z" fill="white"/>
</g>
</g>
</svg>
