<svg width="41" height="40" viewBox="0 0 41 40" fill="none" xmlns="http://www.w3.org/2000/svg">
<g id="diversity_3">
<mask id="mask0_665_4583" style="mask-type:alpha" maskUnits="userSpaceOnUse" x="0" y="0" width="41" height="40">
<rect id="Bounding box" x="0.960449" width="40" height="40" fill="#D9D9D9"/>
</mask>
<g mask="url(#mask0_665_4583)">
<path id="diversity_3_2" d="M4.32593 32.3078V26.4745C4.32593 25.8434 4.53551 25.301 4.95468 24.8473C5.37384 24.3936 5.88007 24.1454 6.47334 24.1027H11.4189C11.8405 24.1027 12.2444 24.2063 12.6304 24.4136C13.0165 24.6208 13.3409 24.91 13.6037 25.2811C14.452 26.4983 15.5216 27.4396 16.8126 28.1048C18.1035 28.7701 19.4862 29.1027 20.9606 29.1027C22.4371 29.1027 23.8261 28.7701 25.1278 28.1048C26.4294 27.4396 27.5126 26.4983 28.3772 25.2811C28.6301 24.91 28.9444 24.6208 29.3201 24.4136C29.6958 24.2063 30.0898 24.1027 30.5022 24.1027H35.4478C36.0574 24.1454 36.5731 24.3936 36.9948 24.8473C37.4164 25.301 37.6272 25.8434 37.6272 26.4745V32.3078H27.8836V27.9093C26.9356 28.7305 25.8738 29.3698 24.6983 29.827C23.5227 30.2843 22.2768 30.5129 20.9606 30.5129C19.6821 30.5129 18.4538 30.2891 17.2757 29.8414C16.0977 29.3938 15.0289 28.7594 14.0695 27.9381V32.3078H4.32593ZM20.9606 25.8975C20.0389 25.8975 19.1607 25.6815 18.3259 25.2495C17.4912 24.8176 16.7999 24.218 16.2522 23.4509C15.8697 22.9289 15.4287 22.4782 14.9291 22.0989C14.4294 21.7196 13.8854 21.4267 13.2971 21.2202C14.1589 20.5713 15.3306 20.0882 16.8121 19.7709C18.2935 19.4536 19.6764 19.295 20.9606 19.295C22.259 19.295 23.6465 19.4536 25.1229 19.7709C26.5994 20.0882 27.7793 20.5713 28.6625 21.2202C28.0763 21.4267 27.5329 21.7196 27.0321 22.0989C26.5314 22.4782 26.0969 22.9289 25.7287 23.4509C25.1902 24.2273 24.4983 24.8291 23.6528 25.2565C22.8074 25.6838 21.91 25.8975 20.9606 25.8975ZM8.58876 20.7693C7.4919 20.7693 6.54461 20.3704 5.74689 19.5727C4.94916 18.775 4.5503 17.8277 4.5503 16.7308C4.5503 15.6062 4.94916 14.652 5.74689 13.8681C6.54461 13.0843 7.4919 12.6924 8.58876 12.6924C9.7134 12.6924 10.6676 13.0843 11.4515 13.8681C12.2353 14.652 12.6272 15.6062 12.6272 16.7308C12.6272 17.8277 12.2353 18.775 11.4515 19.5727C10.6676 20.3704 9.7134 20.7693 8.58876 20.7693ZM33.3323 20.7693C32.2355 20.7693 31.2882 20.3704 30.4905 19.5727C29.6927 18.775 29.2939 17.8277 29.2939 16.7308C29.2939 15.6062 29.6927 14.652 30.4905 13.8681C31.2882 13.0843 32.2355 12.6924 33.3323 12.6924C34.457 12.6924 35.4112 13.0843 36.1951 13.8681C36.9789 14.652 37.3708 15.6062 37.3708 16.7308C37.3708 17.8277 36.9789 18.775 36.1951 19.5727C35.4112 20.3704 34.457 20.7693 33.3323 20.7693ZM20.9606 15.7693C19.8637 15.7693 18.9164 15.3704 18.1187 14.5727C17.321 13.775 16.9221 12.8277 16.9221 11.7308C16.9221 10.6062 17.321 9.65197 18.1187 8.86813C18.9164 8.0843 19.8637 7.69238 20.9606 7.69238C22.0852 7.69238 23.0394 8.0843 23.8233 8.86813C24.6071 9.65197 24.999 10.6062 24.999 11.7308C24.999 12.8277 24.6071 13.775 23.8233 14.5727C23.0394 15.3704 22.0852 15.7693 20.9606 15.7693Z" fill="white"/>
</g>
</g>
</svg>
