<svg width="40" height="40" viewBox="0 0 40 40" fill="none" xmlns="http://www.w3.org/2000/svg">
<g id="encrypted">
<mask id="mask0_665_4577" style="mask-type:alpha" maskUnits="userSpaceOnUse" x="0" y="0" width="40" height="40">
<rect id="Bounding box" width="40" height="40" fill="#D9D9D9"/>
</mask>
<g mask="url(#mask0_665_4577)">
<path id="encrypted_2" d="M18.4231 24.1667H21.577L20.6379 18.8067C21.1379 18.6371 21.5466 18.3479 21.8639 17.9388C22.1812 17.5298 22.3398 17.063 22.3398 16.5385C22.3398 15.8905 22.1116 15.3386 21.6552 14.8827C21.1987 14.4267 20.6462 14.1987 19.9976 14.1987C19.3489 14.1987 18.7972 14.4267 18.3425 14.8827C17.8877 15.3386 17.6603 15.8905 17.6603 16.5385C17.6603 17.063 17.8189 17.5298 18.1362 17.9388C18.4535 18.3479 18.8622 18.6371 19.3622 18.8067L18.4231 24.1667ZM20 34.9295C16.6475 33.9217 13.8649 31.8763 11.6523 28.7933C9.43968 25.7103 8.33337 22.25 8.33337 18.4124V9.48079L20 5.12183L31.6667 9.48079V18.4124C31.6667 22.25 30.5604 25.7103 28.3478 28.7933C26.1352 31.8763 23.3526 33.9217 20 34.9295Z" fill="white"/>
</g>
</g>
</svg>
