<svg width="36" height="36" viewBox="0 0 36 36" fill="none" xmlns="http://www.w3.org/2000/svg">
<g id="fluent-mdl2:see-do">
<path id="Vector" d="M24.75 0C25.2188 0 25.6758 0.0703125 26.1211 0.210938C26.5664 0.351562 26.9766 0.5625 27.3516 0.84375C27.7266 1.125 28.0547 1.44141 28.3359 1.79297C28.6172 2.14453 28.8398 2.55469 29.0039 3.02344L35.3848 22.1484C35.7949 23.3555 36 24.5977 36 25.875C36 26.9648 35.7949 27.9844 35.3848 28.9336C34.9746 29.8828 34.4121 30.7148 33.6973 31.4297C32.9824 32.1445 32.1504 32.707 31.2012 33.1172C30.252 33.5273 29.2266 33.7383 28.125 33.75C27.082 33.75 26.0801 33.5508 25.1191 33.1523C24.1582 32.7539 23.3027 32.1855 22.5527 31.4473C21.8145 30.709 21.2461 29.8594 20.8477 28.8984C20.4492 27.9375 20.25 26.9297 20.25 25.875V18H15.75V25.875C15.75 26.918 15.5508 27.9199 15.1523 28.8809C14.7539 29.8418 14.1855 30.6973 13.4473 31.4473C12.709 32.1855 11.8594 32.7539 10.8984 33.1523C9.9375 33.5508 8.92969 33.75 7.875 33.75C6.78516 33.75 5.76562 33.5449 4.81641 33.1348C3.86719 32.7246 3.03516 32.1621 2.32031 31.4473C1.60547 30.7324 1.04297 29.9004 0.632812 28.9512C0.222656 28.002 0.0117188 26.9766 0 25.875C0 24.5977 0.205078 23.3555 0.615234 22.1484C0.673828 21.9844 0.808594 21.5859 1.01953 20.9531C1.23047 20.3203 1.48828 19.5352 1.79297 18.5977C2.09766 17.6602 2.44336 16.6289 2.83008 15.5039C3.2168 14.3789 3.60352 13.2363 3.99023 12.0762C4.37695 10.916 4.75195 9.79102 5.11523 8.70117C5.47852 7.61133 5.80078 6.63867 6.08203 5.7832C6.36328 4.92773 6.58594 4.24805 6.75 3.74414C6.91406 3.24023 7.00195 2.98242 7.01367 2.9707C7.18945 2.53711 7.41797 2.13867 7.69922 1.77539C7.98047 1.41211 8.30273 1.0957 8.66602 0.826172C9.0293 0.556641 9.43359 0.357422 9.87891 0.228516C10.3242 0.0996094 10.7812 0.0234375 11.25 0C12.1172 0 12.8262 0.140625 13.377 0.421875C13.9277 0.703125 14.373 1.07812 14.7129 1.54688C15.0527 2.01562 15.2988 2.56055 15.4512 3.18164C15.6035 3.80273 15.6973 4.44727 15.7324 5.11523C15.7676 5.7832 15.7852 6.45117 15.7852 7.11914C15.7852 7.78711 15.7734 8.41406 15.75 9H20.25C20.25 8.42578 20.2441 7.80469 20.2324 7.13672C20.2207 6.46875 20.2266 5.79492 20.25 5.11523C20.2734 4.43555 20.373 3.79688 20.5488 3.19922C20.7246 2.60156 20.9648 2.05664 21.2695 1.56445C21.5742 1.07227 22.0195 0.691406 22.6055 0.421875C23.1914 0.152344 23.9062 0.0117188 24.75 0ZM7.875 31.5C8.64844 31.5 9.375 31.3535 10.0547 31.0605C10.7344 30.7676 11.3262 30.3633 11.8301 29.8477C12.334 29.332 12.7383 28.7344 13.043 28.0547C13.3477 27.375 13.5 26.6484 13.5 25.875C13.5 25.1016 13.3535 24.375 13.0605 23.6953C12.7676 23.0156 12.3633 22.4238 11.8477 21.9199C11.332 21.416 10.7344 21.0117 10.0547 20.707C9.375 20.4023 8.64844 20.25 7.875 20.25C7.10156 20.25 6.375 20.3965 5.69531 20.6895C5.01562 20.9824 4.42383 21.3867 3.91992 21.9023C3.41602 22.418 3.01172 23.0156 2.70703 23.6953C2.40234 24.375 2.25 25.1016 2.25 25.875C2.25 26.6484 2.39648 27.375 2.68945 28.0547C2.98242 28.7344 3.38672 29.3262 3.90234 29.8301C4.41797 30.334 5.01562 30.7383 5.69531 31.043C6.375 31.3477 7.10156 31.5 7.875 31.5ZM13.5 4.5C13.5 4.18359 13.4414 3.89062 13.3242 3.62109C13.207 3.35156 13.0488 3.11719 12.8496 2.91797C12.6504 2.71875 12.4102 2.55469 12.1289 2.42578C11.8477 2.29688 11.5547 2.23828 11.25 2.25C10.793 2.25 10.3652 2.39062 9.9668 2.67188C9.56836 2.95312 9.28711 3.31641 9.12305 3.76172L4.04297 18.9844C4.64062 18.668 5.26172 18.4277 5.90625 18.2637C6.55078 18.0996 7.20703 18.0117 7.875 18C8.26172 18 8.73047 18.0527 9.28125 18.1582C9.83203 18.2637 10.3887 18.4219 10.9512 18.6328C11.5137 18.8438 12.0234 19.0957 12.4805 19.3887C12.9375 19.6816 13.2773 20.0098 13.5 20.373V4.5ZM20.25 15.75V11.25H15.75V15.75H20.25ZM22.5 20.373C22.7109 20.0098 23.0449 19.6816 23.502 19.3887C23.959 19.0957 24.4688 18.8496 25.0312 18.6504C25.5938 18.4512 26.1504 18.293 26.7012 18.1758C27.252 18.0586 27.7266 18 28.125 18C28.793 18 29.4492 18.082 30.0938 18.2461C30.7383 18.4102 31.3594 18.6562 31.957 18.9844L26.877 3.76172C26.7246 3.31641 26.4492 2.95312 26.0508 2.67188C25.6523 2.39062 25.2188 2.25 24.75 2.25C24.4336 2.25 24.1406 2.30859 23.8711 2.42578C23.6016 2.54297 23.3672 2.70117 23.168 2.90039C22.9688 3.09961 22.8047 3.33984 22.6758 3.62109C22.5469 3.90234 22.4883 4.19531 22.5 4.5V20.373ZM28.125 31.5C28.8984 31.5 29.625 31.3535 30.3047 31.0605C30.9844 30.7676 31.5762 30.3633 32.0801 29.8477C32.584 29.332 32.9883 28.7344 33.293 28.0547C33.5977 27.375 33.75 26.6484 33.75 25.875C33.75 25.1016 33.6035 24.375 33.3105 23.6953C33.0176 23.0156 32.6133 22.4238 32.0977 21.9199C31.582 21.416 30.9844 21.0117 30.3047 20.707C29.625 20.4023 28.8984 20.25 28.125 20.25C27.3516 20.25 26.625 20.3965 25.9453 20.6895C25.2656 20.9824 24.6738 21.3867 24.1699 21.9023C23.666 22.418 23.2617 23.0156 22.957 23.6953C22.6523 24.375 22.5 25.1016 22.5 25.875C22.5 26.6484 22.6465 27.375 22.9395 28.0547C23.2324 28.7344 23.6367 29.3262 24.1523 29.8301C24.668 30.334 25.2656 30.7383 25.9453 31.043C26.625 31.3477 27.3516 31.5 28.125 31.5Z" fill="white"/>
</g>
</svg>
