<svg width="40" height="40" viewBox="0 0 40 40" fill="none" xmlns="http://www.w3.org/2000/svg">
<g id="google-play 1" clip-path="url(#clip0_682_4293)">
<path id="Vector" d="M23.0148 20.0036L2.92774 39.3461C1.98709 38.7032 1.42861 37.6339 1.43848 36.4947V3.51253C1.42861 2.37326 1.98709 1.30398 2.92774 0.661133L23.0148 20.0036Z" fill="#2196F3"/>
<path id="Vector_2" d="M30.0435 13.2473L23.0148 20.0035L2.92773 0.661064C3.00342 0.602407 3.08225 0.547836 3.16381 0.497607C4.22543 -0.145837 5.55148 -0.166609 6.63277 0.443121L30.0435 13.2473Z" fill="#4CAF50"/>
<path id="Vector_3" d="M38.5615 20.0033C38.5746 21.2894 37.8757 22.4774 36.7453 23.0909L30.0436 26.7596L23.0149 20.0033L30.0436 13.2471L36.7453 16.9158C37.8757 17.5292 38.5746 18.7172 38.5615 20.0033Z" fill="#FFC107"/>
<path id="Vector_4" d="M30.0435 26.7597L6.63277 39.5638C5.5491 40.1641 4.22807 40.1433 3.16381 39.5093C3.08225 39.4591 3.00342 39.4045 2.92773 39.3459L23.0149 20.0034L30.0435 26.7597Z" fill="#F44336"/>
</g>
<defs>
<clipPath id="clip0_682_4293">
<rect width="40" height="40" fill="white"/>
</clipPath>
</defs>
</svg>
