<svg width="36" height="37" viewBox="0 0 36 37" fill="none" xmlns="http://www.w3.org/2000/svg">
<g id="healthicons:money-bag">
<path id="Vector" fill-rule="evenodd" clip-rule="evenodd" d="M18.0293 5C14.6415 5 11.5553 6.119 9.72905 7.03325C9.56405 7.11575 9.4103 7.19675 9.26705 7.27475C8.98355 7.42925 8.74205 7.57325 8.55005 7.7L10.6275 10.7585L11.6055 11.1477C15.4275 13.076 20.553 13.076 24.3758 11.1477L25.4858 10.5717L27.45 7.7C27.0432 7.43454 26.6201 7.19482 26.1833 6.98225C24.366 6.07775 21.3533 5 18.03 5M13.1985 8.462C12.4629 8.32435 11.7363 8.14201 11.0228 7.916C12.7335 7.15625 15.2828 6.35 18.03 6.35C19.9328 6.35 21.732 6.737 23.22 7.2275C21.4763 7.47275 19.6155 7.889 17.8425 8.40125C16.4475 8.80475 14.817 8.76125 13.1985 8.462ZM25.1685 12.26L24.984 12.353C20.7795 14.474 15.2025 14.474 10.998 12.353L10.8233 12.2645C4.50605 19.1952 -0.316453 31.9978 18.0293 31.9978C36.375 31.9978 31.4355 18.9575 25.1685 12.26ZM17.25 18.5C16.8522 18.5 16.4707 18.658 16.1894 18.9393C15.9081 19.2206 15.75 19.6022 15.75 20C15.75 20.3978 15.9081 20.7794 16.1894 21.0607C16.4707 21.342 16.8522 21.5 17.25 21.5V18.5ZM18.75 17V16.25H17.25V17C16.4544 17 15.6913 17.3161 15.1287 17.8787C14.5661 18.4413 14.25 19.2044 14.25 20C14.25 20.7956 14.5661 21.5587 15.1287 22.1213C15.6913 22.6839 16.4544 23 17.25 23V26C16.5975 26 16.0418 25.5837 15.8348 25.0002C15.8041 24.9048 15.7545 24.8165 15.6891 24.7405C15.6236 24.6645 15.5436 24.6024 15.4538 24.5579C15.3639 24.5134 15.266 24.4873 15.1659 24.4813C15.0658 24.4753 14.9655 24.4894 14.871 24.5228C14.7764 24.5562 14.6895 24.6082 14.6154 24.6758C14.5413 24.7434 14.4816 24.8251 14.4396 24.9162C14.3977 25.0073 14.3744 25.1059 14.3712 25.2061C14.368 25.3063 14.385 25.4062 14.421 25.4998C14.6279 26.0847 15.0111 26.5912 15.5177 26.9494C16.0243 27.3076 16.6296 27.5 17.25 27.5V28.25H18.75V27.5C19.5457 27.5 20.3088 27.1839 20.8714 26.6213C21.434 26.0587 21.75 25.2956 21.75 24.5C21.75 23.7044 21.434 22.9413 20.8714 22.3787C20.3088 21.8161 19.5457 21.5 18.75 21.5V18.5C19.4025 18.5 19.9583 18.9163 20.1653 19.4998C20.196 19.5952 20.2456 19.6835 20.311 19.7595C20.3764 19.8355 20.4565 19.8976 20.5463 19.9421C20.6362 19.9866 20.7341 20.0127 20.8342 20.0187C20.9343 20.0247 21.0346 20.0106 21.1291 19.9772C21.2237 19.9438 21.3106 19.8918 21.3847 19.8242C21.4587 19.7566 21.5185 19.6749 21.5605 19.5838C21.6024 19.4927 21.6257 19.3941 21.6289 19.2939C21.6321 19.1937 21.6151 19.0938 21.579 19.0002C21.3722 18.4153 20.989 17.9088 20.4824 17.5506C19.9758 17.1924 19.3705 17 18.75 17ZM18.75 23V26C19.1479 26 19.5294 25.842 19.8107 25.5607C20.092 25.2794 20.25 24.8978 20.25 24.5C20.25 24.1022 20.092 23.7206 19.8107 23.4393C19.5294 23.158 19.1479 23 18.75 23Z" fill="#124E78"/>
</g>
</svg>
