<svg width="27" height="28" viewBox="0 0 27 28" fill="none" xmlns="http://www.w3.org/2000/svg">
<g id="Group" clip-path="url(#clip0_683_4338)">
<path id="Vector" fill-rule="evenodd" clip-rule="evenodd" d="M19.1124 3.29289C19.9518 3.3031 20.7832 3.45626 21.5705 3.74573C22.1415 3.96453 22.66 4.29971 23.0927 4.72969C23.5254 5.15967 23.8627 5.67493 24.0829 6.24228C24.3742 7.02464 24.5283 7.85085 24.5386 8.68498C24.6016 10.0723 24.6155 10.4882 24.6155 14C24.6155 17.5119 24.6023 17.9278 24.5386 19.3151C24.5283 20.1492 24.3742 20.9754 24.0829 21.7578C23.8627 22.3251 23.5254 22.8404 23.0927 23.2704C22.66 23.7003 22.1415 24.0355 21.5705 24.2543C20.7832 24.5438 19.9518 24.697 19.1124 24.7072C17.7169 24.7698 17.2984 24.7836 13.7636 24.7836C10.2289 24.7836 9.8104 24.7704 8.41492 24.7072C7.5755 24.697 6.74406 24.5438 5.95675 24.2543C5.3858 24.0355 4.86728 23.7003 4.43457 23.2704C4.00187 22.8404 3.66456 22.3251 3.44437 21.7578C3.15307 20.9754 2.99894 20.1492 2.98866 19.3151C2.92563 17.9278 2.91177 17.5119 2.91177 14C2.91177 10.4882 2.925 10.0723 2.98866 8.68498C2.99894 7.85085 3.15307 7.02464 3.44437 6.24228C3.66456 5.67493 4.00187 5.15967 4.43457 4.72969C4.86728 4.29971 5.3858 3.96453 5.95675 3.74573C6.74406 3.45626 7.5755 3.3031 8.41492 3.29289C9.81103 3.23025 10.2295 3.21648 13.7636 3.21648C17.2977 3.21648 17.7163 3.22963 19.1124 3.29289ZM8.30651 0.925353C7.20792 0.947067 6.121 1.15376 5.09198 1.53665C4.20924 1.86715 3.4097 2.38506 2.74915 3.05426C2.07511 3.71089 1.55347 4.50584 1.22067 5.38358C0.835359 6.40613 0.627352 7.48621 0.605501 8.57788C0.542471 9.97961 0.527344 10.4293 0.527344 13.9994C0.527344 17.5695 0.542471 18.0192 0.606761 19.4222C0.628613 20.5139 0.83662 21.5939 1.22193 22.6165C1.55436 23.4941 2.07556 24.2891 2.74915 24.9458C3.41007 25.6152 4.21005 26.1331 5.09324 26.4634C6.12226 26.8463 7.20918 27.053 8.30777 27.0747C9.71964 27.1373 10.1703 27.1536 13.7649 27.1536C17.3595 27.1536 17.8102 27.1386 19.222 27.0747C20.3206 27.053 21.4075 26.8463 22.4366 26.4634C23.3156 26.1248 24.1138 25.6077 24.7802 24.9451C25.4466 24.2824 25.9665 23.4889 26.3066 22.6152C26.6919 21.5927 26.8999 20.5126 26.9218 19.4209C26.9848 18.0192 26.9999 17.5695 26.9999 13.9994C26.9999 10.4293 26.9848 9.97961 26.9205 8.57662C26.8987 7.48496 26.6907 6.40488 26.3053 5.38233C25.9729 4.5047 25.4517 3.70976 24.7781 3.053C24.1172 2.38366 23.3172 1.86573 22.434 1.5354C21.405 1.15251 20.3181 0.945814 19.2195 0.924101C17.8089 0.861468 17.3563 0.846436 13.7636 0.846436C10.1709 0.846436 9.71838 0.861467 8.30651 0.925353Z" fill="#124E78"/>
<path id="Vector_2" fill-rule="evenodd" clip-rule="evenodd" d="M9.98448 8.38368C8.8667 9.12586 7.99549 10.1807 7.48103 11.4149C6.96657 12.6491 6.83196 14.0072 7.09423 15.3174C7.3565 16.6277 8.00387 17.8312 8.95447 18.7758C9.90507 19.7204 11.1162 20.3637 12.4347 20.6243C13.7532 20.8849 15.1199 20.7512 16.3619 20.2399C17.604 19.7287 18.6655 18.863 19.4124 17.7522C20.1593 16.6415 20.5579 15.3356 20.5579 13.9997C20.5579 12.2084 19.8418 10.4904 18.5671 9.22367C17.2924 7.95698 15.5635 7.24536 13.7608 7.24536C12.4164 7.24536 11.1023 7.6415 9.98448 8.38368ZM11.3095 17.6452C10.584 17.1634 10.0185 16.4787 9.68453 15.6775C9.35059 14.8764 9.26322 13.9949 9.43346 13.1444C9.6037 12.2939 10.0239 11.5127 10.641 10.8995C11.258 10.2864 12.0442 9.86881 12.9 9.69964C13.7559 9.53047 14.643 9.6173 15.4492 9.94914C16.2554 10.281 16.9445 10.8429 17.4293 11.5639C17.9141 12.2849 18.1729 13.1326 18.1729 13.9997C18.1729 15.1625 17.708 16.2777 16.8806 17.0999C16.0532 17.9221 14.9309 18.384 13.7608 18.384C12.8881 18.384 12.0351 18.1269 11.3095 17.6452Z" fill="#124E78"/>
<path id="Vector_3" fill-rule="evenodd" clip-rule="evenodd" d="M20.8283 8.55649C19.9511 8.55649 19.24 7.84984 19.24 6.97814C19.24 6.10643 19.9511 5.39978 20.8283 5.39978C21.7056 5.39978 22.4167 6.10643 22.4167 6.97814C22.4167 7.84984 21.7056 8.55649 20.8283 8.55649Z" fill="#124E78"/>
</g>
<defs>
<clipPath id="clip0_683_4338">
<rect width="26.4726" height="26.3072" fill="white" transform="translate(0.527344 0.846436)"/>
</clipPath>
</defs>
</svg>
