<svg width="233" height="40" viewBox="0 0 233 40" fill="none" xmlns="http://www.w3.org/2000/svg">
<g id="Vector">
<path d="M0.340454 39.6406V3.69705H16.0954C27.783 3.69705 35.7634 10.8858 35.7634 21.6688C35.7634 32.4519 27.783 39.6406 16.0954 39.6406H0.340454ZM7.03375 33.9923H15.7865C23.8185 33.9923 29.0187 29.1143 29.0187 21.6688C29.0187 14.2234 23.8185 9.34531 15.7865 9.34531H7.03375V33.9923Z" fill="black"/>
<path d="M54.0501 40C45.6063 40 39.4279 34.1463 39.4279 25.9307C39.4279 17.715 45.6063 11.9127 54.0501 11.9127C62.597 11.9127 68.7239 17.715 68.7239 25.9307C68.7239 34.1463 62.597 40 54.0501 40ZM54.0501 34.5058C58.7355 34.5058 62.2366 31.1682 62.2366 25.9307C62.2366 20.6932 58.7355 17.3556 54.0501 17.3556C49.4163 17.3556 45.9152 20.6932 45.9152 25.9307C45.9152 31.1682 49.4163 34.5058 54.0501 34.5058Z" fill="black"/>
<path d="M109.014 11.9127C115.656 11.9127 120.29 15.6611 120.29 23.9281V39.6406H113.854V24.7497C113.854 19.8716 111.588 17.5096 107.675 17.5096C103.453 17.5096 100.519 20.2824 100.519 25.7253V39.6406H94.0828V24.7497C94.0828 19.8716 91.8174 17.5096 87.9044 17.5096C83.631 17.5096 80.7477 20.2824 80.7477 25.7253V39.6406H74.3119V12.2208H80.4388V15.7125C82.4983 13.2478 85.6905 11.9127 89.449 11.9127C93.465 11.9127 96.8116 13.4018 98.7166 16.4827C100.931 13.6585 104.638 11.9127 109.014 11.9127Z" fill="black"/>
<path d="M131.191 7.70218C128.823 7.70218 127.072 6.0077 127.072 3.85109C127.072 1.69448 128.823 0 131.191 0C133.56 0 135.31 1.59178 135.31 3.69705C135.31 5.95635 133.611 7.70218 131.191 7.70218ZM127.948 39.6406V12.2208H134.383V39.6406H127.948Z" fill="black"/>
<path d="M157.865 11.9127C164.455 11.9127 169.346 15.6611 169.346 23.9281V39.6406H162.91V24.7497C162.91 19.8716 160.49 17.5096 156.372 17.5096C151.789 17.5096 148.7 20.2824 148.7 25.7766V39.6406H142.264V12.2208H148.391V15.7638C150.502 13.2478 153.849 11.9127 157.865 11.9127Z" fill="black"/>
<path d="M186.975 39.6406C183.098 39.6406 179.821 38.2489 177.145 35.4654C174.469 32.682 173.131 29.3406 173.131 25.4411C173.131 21.5679 174.475 18.2593 177.165 15.5153C179.854 12.7713 183.125 11.3992 186.975 11.3992C188.544 11.3992 190.062 11.6649 191.528 12.1961C192.993 12.7273 194.297 13.5251 195.438 14.5897L199.848 18.6861L195.3 22.9203L191.416 19.2411C190.825 18.6772 190.14 18.2598 189.364 17.9892C188.588 17.7185 187.799 17.5831 186.996 17.5831C184.833 17.5831 183.017 18.3494 181.546 19.882C180.076 21.4146 179.34 23.2724 179.34 25.4554C179.34 27.6648 180.069 29.5506 181.526 31.113C182.983 32.6755 184.805 33.4567 186.994 33.4567C187.798 33.4567 188.582 33.3216 189.346 33.0516C190.109 32.7816 190.795 32.3783 191.404 31.8417L210.033 14.5897C211.174 13.5251 212.477 12.7273 213.943 12.1961C215.409 11.6649 216.913 11.3992 218.456 11.3992C222.333 11.3992 225.617 12.7713 228.306 15.5153C230.996 18.2593 232.34 21.5679 232.34 25.4411C232.34 29.3406 230.996 32.682 228.306 35.4654C225.617 38.2489 222.333 39.6406 218.456 39.6406C216.913 39.6406 215.403 39.3815 213.924 38.8635C212.445 38.3454 211.148 37.554 210.033 36.4895L205.741 32.3931L210.25 28.1589L214.066 31.8417C214.634 32.38 215.303 32.7838 216.075 33.053C216.846 33.3221 217.634 33.4567 218.438 33.4567C220.626 33.4567 222.455 32.6734 223.925 31.1069C225.396 29.5404 226.131 27.6563 226.131 25.4547C226.131 23.2793 225.389 21.4235 223.906 19.8874C222.422 18.3512 220.6 17.5831 218.438 17.5831C217.634 17.5831 216.85 17.7313 216.086 18.0276C215.322 18.3239 214.649 18.7403 214.067 19.2769L195.438 36.5289C194.297 37.5672 192.987 38.3454 191.508 38.8635C190.029 39.3815 188.518 39.6406 186.975 39.6406Z" fill="#5DC21E"/>
</g>
</svg>
