<svg width="37" height="37" viewBox="0 0 37 37" fill="none" xmlns="http://www.w3.org/2000/svg">
<g id="mingcute:game-2-fill" clip-path="url(#clip0_663_4172)">
<g id="Group">
<path id="Vector" d="M25.9999 6.5C27.6589 6.5 28.9324 7.7645 29.8759 9.125L30.1954 9.6065L30.4879 10.0865C30.5809 10.2425 30.6694 10.3985 30.7549 10.5485C31.9354 12.659 32.9629 15.4145 33.6424 18.137C34.3174 20.8385 34.6909 23.66 34.4524 25.8785C34.2124 28.106 33.0649 30.5 30.4999 30.5C28.1989 30.5 26.3854 29.27 24.9124 28.0685L23.2474 26.672C21.8629 25.538 20.3479 24.5 18.4999 24.5C16.6519 24.5 15.1354 25.538 13.7539 26.672L12.0889 28.067C10.6129 29.27 8.79944 30.5 6.49994 30.5C3.93344 30.5 2.78594 28.106 2.54744 25.8785C2.31044 23.6585 2.68244 20.8385 3.35744 18.137C4.03694 15.4145 5.06444 12.659 6.24494 10.5485L6.51194 10.085L6.80444 9.6065L7.12394 9.125C8.06744 7.7645 9.34094 6.5 10.9999 6.5C11.7649 6.5 12.5254 6.686 13.2724 6.905L14.1619 7.178C14.3089 7.223 14.4544 7.2665 14.5999 7.307C15.8974 7.679 17.2249 8 18.4999 8C19.7749 8 21.1024 7.679 22.3999 7.307L23.7274 6.9065C24.4744 6.686 25.2349 6.5 25.9999 6.5ZM13.2499 12.5C12.2554 12.5 11.3016 12.8951 10.5983 13.5983C9.89503 14.3016 9.49994 15.2554 9.49994 16.25C9.49994 17.2446 9.89503 18.1984 10.5983 18.9017C11.3016 19.6049 12.2554 20 13.2499 20C14.2445 20 15.1983 19.6049 15.9016 18.9017C16.6049 18.1984 16.9999 17.2446 16.9999 16.25C16.9999 15.2554 16.6049 14.3016 15.9016 13.5983C15.1983 12.8951 14.2445 12.5 13.2499 12.5ZM23.7499 12.5C23.3521 12.5 22.9706 12.658 22.6893 12.9393C22.408 13.2206 22.2499 13.6022 22.2499 14V14.75H21.4999C21.1021 14.75 20.7206 14.908 20.4393 15.1893C20.158 15.4706 19.9999 15.8522 19.9999 16.25C19.9999 16.6478 20.158 17.0294 20.4393 17.3107C20.7206 17.592 21.1021 17.75 21.4999 17.75H22.2499V18.5C22.2499 18.8978 22.408 19.2794 22.6893 19.5607C22.9706 19.842 23.3521 20 23.7499 20C24.1478 20 24.5293 19.842 24.8106 19.5607C25.0919 19.2794 25.2499 18.8978 25.2499 18.5V17.75H25.9999C26.3978 17.75 26.7793 17.592 27.0606 17.3107C27.3419 17.0294 27.4999 16.6478 27.4999 16.25C27.4999 15.8522 27.3419 15.4706 27.0606 15.1893C26.7793 14.908 26.3978 14.75 25.9999 14.75H25.2499V14C25.2499 13.6022 25.0919 13.2206 24.8106 12.9393C24.5293 12.658 24.1478 12.5 23.7499 12.5ZM13.2499 15.5C13.4489 15.5 13.6396 15.579 13.7803 15.7197C13.9209 15.8603 13.9999 16.0511 13.9999 16.25C13.9999 16.4489 13.9209 16.6397 13.7803 16.7803C13.6396 16.921 13.4489 17 13.2499 17C13.051 17 12.8603 16.921 12.7196 16.7803C12.579 16.6397 12.4999 16.4489 12.4999 16.25C12.4999 16.0511 12.579 15.8603 12.7196 15.7197C12.8603 15.579 13.051 15.5 13.2499 15.5Z" fill="#124E78"/>
</g>
</g>
<defs>
<clipPath id="clip0_663_4172">
<rect width="36" height="36" fill="white" transform="translate(0.5 0.5)"/>
</clipPath>
</defs>
</svg>
