<svg width="41" height="40" viewBox="0 0 41 40" fill="none" xmlns="http://www.w3.org/2000/svg">
<g id="social_leaderboard">
<mask id="mask0_665_4589" style="mask-type:alpha" maskUnits="userSpaceOnUse" x="0" y="0" width="41" height="40">
<rect id="Bounding box" x="0.960449" width="40" height="40" fill="#D9D9D9"/>
</mask>
<g mask="url(#mask0_665_4589)">
<path id="social_leaderboard_2" d="M13.4188 33.3332C11.3611 33.3332 9.6036 32.6046 8.14632 31.1473C6.68907 29.6901 5.96045 27.9326 5.96045 25.8749C5.96045 23.8492 6.66824 22.1126 8.08382 20.6649C9.49944 19.2173 11.2201 18.471 13.2457 18.4262C13.4594 18.4262 13.673 18.4422 13.8867 18.4742C14.1004 18.5063 14.3141 18.5437 14.5277 18.5864L9.03737 7.56396H16.9861L20.9604 15.5127L24.9348 7.56396H32.8835L27.4348 18.471C27.6271 18.4283 27.8248 18.3962 28.0278 18.3749C28.2308 18.3535 28.4391 18.3428 28.6527 18.3428C30.6934 18.3941 32.4215 19.1436 33.8371 20.5912C35.2527 22.0389 35.9604 23.7862 35.9604 25.8332C35.9604 27.9187 35.2318 29.6901 33.7746 31.1473C32.3173 32.6046 30.5459 33.3332 28.4604 33.3332C28.1463 33.3332 27.8253 33.3156 27.4973 33.2803C27.1693 33.2451 26.859 33.1783 26.5662 33.08C27.8547 32.4718 28.7703 31.484 29.313 30.1169C29.8558 28.7497 30.1271 27.3218 30.1271 25.8332C30.1271 23.2755 29.2388 21.1083 27.4621 19.3316C25.6854 17.5549 23.5181 16.6665 20.9604 16.6665C18.4028 16.6665 16.2355 17.5549 14.4588 19.3316C12.6821 21.1083 11.7938 23.2755 11.7938 25.8332C11.7938 27.3503 12.0463 28.8061 12.5512 30.2008C13.0562 31.5953 13.9875 32.5551 15.3451 33.08C15.031 33.1783 14.7153 33.2451 14.3979 33.2803C14.0806 33.3156 13.7543 33.3332 13.4188 33.3332ZM20.9695 33.5896C18.8174 33.5896 16.9852 32.8364 15.4727 31.33C13.9603 29.8235 13.204 27.9943 13.204 25.8423C13.204 23.6902 13.9573 21.858 15.4637 20.3455C16.9701 18.833 18.7994 18.0768 20.9514 18.0768C23.1034 18.0768 24.9357 18.83 26.4482 20.3365C27.9606 21.8429 28.7169 23.6721 28.7169 25.8242C28.7169 27.9762 27.9636 29.8085 26.4572 31.3209C24.9508 32.8334 23.1215 33.5896 20.9695 33.5896ZM18.3579 29.6473L20.9604 27.6665L23.563 29.6473L22.5887 26.4326L25.1912 24.5768H21.9765L20.9604 21.1858L19.9444 24.5768H16.7297L19.3322 26.4326L18.3579 29.6473Z" fill="white"/>
</g>
</g>
</svg>
