<svg width="37" height="37" viewBox="0 0 37 37" fill="none" xmlns="http://www.w3.org/2000/svg">
<g id="solar:cup-bold">
<path id="Vector" d="M33.5 12.743V12.8525C33.5 14.1425 33.5 14.789 33.1895 15.317C32.879 15.845 32.3135 16.1585 31.1855 16.787L29.996 17.447C30.815 14.675 31.0895 11.696 31.19 9.149L31.205 8.8175L31.208 8.7395C32.1845 9.0785 32.7335 9.332 33.0755 9.806C33.5 10.3955 33.5 11.1785 33.5 12.743ZM3.5 12.743V12.8525C3.5 14.1425 3.5 14.789 3.8105 15.317C4.121 15.845 4.6865 16.1585 5.8145 16.787L7.0055 17.447C6.185 14.675 5.9105 11.696 5.81 9.149L5.795 8.8175L5.7935 8.7395C4.8155 9.0785 4.2665 9.332 3.9245 9.806C3.5 10.3955 3.5 11.18 3.5 12.743Z" fill="#124E78"/>
<path id="Vector_2" fill-rule="evenodd" clip-rule="evenodd" d="M25.0656 4.02061C22.8953 3.66492 20.6992 3.49081 18.5001 3.50011C15.8256 3.50011 13.6206 3.73561 11.9346 4.02061C10.2261 4.30861 9.37257 4.45261 8.65857 5.33161C7.94607 6.21061 7.98357 7.16011 8.05857 9.05911C8.31807 15.5811 9.72507 23.7291 17.3751 24.4491V29.7501H15.2301C14.8834 29.7503 14.5476 29.8706 14.2796 30.0904C14.0116 30.3103 13.828 30.6162 13.7601 30.9561L13.4751 32.3751H9.50007C9.2017 32.3751 8.91555 32.4936 8.70457 32.7046C8.4936 32.9156 8.37507 33.2017 8.37507 33.5001C8.37507 33.7985 8.4936 34.0846 8.70457 34.2956C8.91555 34.5066 9.2017 34.6251 9.50007 34.6251H27.5001C27.7984 34.6251 28.0846 34.5066 28.2956 34.2956C28.5065 34.0846 28.6251 33.7985 28.6251 33.5001C28.6251 33.2017 28.5065 32.9156 28.2956 32.7046C28.0846 32.4936 27.7984 32.3751 27.5001 32.3751H23.5251L23.2401 30.9561C23.1721 30.6162 22.9886 30.3103 22.7206 30.0904C22.4526 29.8706 22.1167 29.7503 21.7701 29.7501H19.6251V24.4491C27.2751 23.7291 28.6836 15.5826 28.9416 9.05911C29.0166 7.16011 29.0556 6.20911 28.3416 5.33161C27.6276 4.45261 26.7741 4.30861 25.0656 4.02061Z" fill="#124E78"/>
</g>
</svg>
