<svg width="23" height="18" viewBox="0 0 23 18" fill="none" xmlns="http://www.w3.org/2000/svg">
<g id="Group" clip-path="url(#clip0_683_4330)">
<path id="Vector" d="M19.5807 2.98848C20.4904 2.44608 21.2182 1.5873 21.5366 0.547718C20.6724 1.04491 19.7172 1.4065 18.671 1.6325C17.8523 0.773714 16.6696 0.231323 15.396 0.231323C12.9398 0.231323 10.9385 2.22009 10.9385 4.66085C10.9385 5.02244 10.984 5.33883 11.0749 5.65523C7.39059 5.47443 4.07015 3.71166 1.84136 0.99971C1.47747 1.6777 1.25004 2.40089 1.25004 3.21447C1.25004 4.75124 2.0233 6.10722 3.25141 6.92081C2.52364 6.87561 1.84136 6.69481 1.20456 6.37842V6.42361C1.20456 8.59318 2.75107 10.4011 4.79792 10.8079C4.43403 10.8983 4.02466 10.9435 3.61529 10.9435C3.34238 10.9435 3.02398 10.8983 2.75107 10.8531C3.34238 12.6159 4.97986 13.9267 6.93574 13.9267C5.38923 15.1019 3.47883 15.8251 1.3865 15.8251C1.02262 15.8251 0.658731 15.8251 0.340332 15.7799C2.3417 17.0454 4.66146 17.7686 7.20865 17.7686C15.4415 17.7686 19.9446 10.9887 19.9446 5.11284C19.9446 4.93204 19.9446 4.70605 19.9446 4.52525C20.8088 3.93766 21.5821 3.16927 22.1734 2.26529C21.3547 2.62688 20.4904 2.85288 19.5807 2.98848Z" fill="#124E78"/>
</g>
<defs>
<clipPath id="clip0_683_4330">
<rect width="21.8331" height="17.5373" fill="white" transform="translate(0.340332 0.231323)"/>
</clipPath>
</defs>
</svg>
