<svg width="232" height="40" viewBox="0 0 232 40" fill="none" xmlns="http://www.w3.org/2000/svg">
<path d="M0 39.6406V3.69705H15.755C27.4425 3.69705 35.423 10.8858 35.423 21.6688C35.423 32.4519 27.4425 39.6406 15.755 39.6406H0ZM6.6933 33.9923H15.4461C23.478 33.9923 28.6782 29.1143 28.6782 21.6688C28.6782 14.2234 23.478 9.34531 15.4461 9.34531H6.6933V33.9923Z" fill="white"/>
<path d="M53.7097 40C45.2658 40 39.0874 34.1463 39.0874 25.9307C39.0874 17.715 45.2658 11.9127 53.7097 11.9127C62.2565 11.9127 68.3835 17.715 68.3835 25.9307C68.3835 34.1463 62.2565 40 53.7097 40ZM53.7097 34.5058C58.395 34.5058 61.8961 31.1682 61.8961 25.9307C61.8961 20.6932 58.395 17.3556 53.7097 17.3556C49.0759 17.3556 45.5748 20.6932 45.5748 25.9307C45.5748 31.1682 49.0759 34.5058 53.7097 34.5058Z" fill="white"/>
<path d="M108.674 11.9127C115.315 11.9127 119.949 15.6611 119.949 23.9281V39.6406H113.513V24.7497C113.513 19.8716 111.248 17.5096 107.335 17.5096C103.113 17.5096 100.178 20.2824 100.178 25.7253V39.6406H93.7424V24.7497C93.7424 19.8716 91.4769 17.5096 87.5639 17.5096C83.2905 17.5096 80.4073 20.2824 80.4073 25.7253V39.6406H73.9714V12.2208H80.0983V15.7125C82.1578 13.2478 85.35 11.9127 89.1085 11.9127C93.1245 11.9127 96.4712 13.4018 98.3762 16.4827C100.59 13.6585 104.297 11.9127 108.674 11.9127Z" fill="white"/>
<path d="M130.851 7.70218C128.482 7.70218 126.732 6.0077 126.732 3.85109C126.732 1.69448 128.482 0 130.851 0C133.219 0 134.97 1.59178 134.97 3.69705C134.97 5.95635 133.271 7.70218 130.851 7.70218ZM127.607 39.6406V12.2208H134.043V39.6406H127.607Z" fill="white"/>
<path d="M157.524 11.9127C164.115 11.9127 169.006 15.6611 169.006 23.9281V39.6406H162.57V24.7497C162.57 19.8716 160.15 17.5096 156.031 17.5096C151.449 17.5096 148.36 20.2824 148.36 25.7766V39.6406H141.924V12.2208H148.051V15.7638C150.162 13.2478 153.508 11.9127 157.524 11.9127Z" fill="white"/>
<path d="M186.635 39.6406C182.758 39.6406 179.481 38.2489 176.805 35.4654C174.128 32.682 172.79 29.3406 172.79 25.4411C172.79 21.5679 174.135 18.2593 176.824 15.5153C179.514 12.7713 182.784 11.3992 186.635 11.3992C188.204 11.3992 189.721 11.6649 191.187 12.1961C192.653 12.7273 193.956 13.5251 195.098 14.5897L199.508 18.6861L194.959 22.9203L191.076 19.2411C190.484 18.6772 189.8 18.2598 189.024 17.9892C188.248 17.7185 187.458 17.5831 186.655 17.5831C184.493 17.5831 182.676 18.3494 181.206 19.882C179.735 21.4146 179 23.2724 179 25.4554C179 27.6648 179.728 29.5506 181.185 31.113C182.642 32.6755 184.465 33.4567 186.653 33.4567C187.457 33.4567 188.241 33.3216 189.005 33.0516C189.769 32.7816 190.455 32.3783 191.063 31.8417L209.692 14.5897C210.834 13.5251 212.137 12.7273 213.603 12.1961C215.069 11.6649 216.573 11.3992 218.116 11.3992C221.993 11.3992 225.276 12.7713 227.966 15.5153C230.655 18.2593 232 21.5679 232 25.4411C232 29.3406 230.655 32.682 227.966 35.4654C225.276 38.2489 221.993 39.6406 218.116 39.6406C216.573 39.6406 215.062 39.3815 213.583 38.8635C212.104 38.3454 210.807 37.554 209.692 36.4895L205.401 32.3931L209.91 28.1589L213.726 31.8417C214.293 32.38 214.963 32.7838 215.734 33.053C216.505 33.3221 217.293 33.4567 218.097 33.4567C220.286 33.4567 222.115 32.6734 223.585 31.1069C225.055 29.5404 225.79 27.6563 225.79 25.4547C225.79 23.2793 225.049 21.4235 223.565 19.8874C222.082 18.3512 220.259 17.5831 218.097 17.5831C217.293 17.5831 216.509 17.7313 215.745 18.0276C214.982 18.3239 214.309 18.7403 213.727 19.2769L195.098 36.5289C193.956 37.5672 192.646 38.3454 191.167 38.8635C189.688 39.3815 188.178 39.6406 186.635 39.6406Z" fill="#5DC21E"/>
</svg>
